<svg xmlns="http://www.w3.org/2000/svg" width="393" height="675" viewBox="0 0 393 675">
    <g fill="none" fill-rule="evenodd">
        <path fill="#FAFAFB" d="M392.43 482.206c0 11.014-19.802 20.17-21.642 30.658-1.892 10.785 13.551 26.125 9.881 36.186-3.735 10.238-25.482 12.074-30.878 21.383-5.448 9.396 3.786 29.106-3.168 37.37-6.975 8.287-28.037 2.612-36.34 9.574-8.28 6.94-6.318 28.626-15.733 34.06-9.33 5.387-27.17-7.11-37.429-3.382-10.082 3.662-15.685 24.71-26.493 26.599-10.512 1.836-22.962-16.007-33.999-16.007-11.037 0-23.487 17.843-33.998 16.007-10.809-1.888-16.412-22.937-26.494-26.6-10.26-3.728-28.1 8.77-37.429 3.384-9.415-5.435-7.452-27.122-15.734-34.063-8.303-6.96-29.364-1.286-36.34-9.574-6.954-8.264 2.281-27.974-3.167-37.37-5.398-9.308-27.143-11.144-30.878-21.381-3.672-10.06 11.773-25.401 9.88-36.186C20.63 502.376.828 493.22.828 482.206c0-11.015 19.803-20.17 21.643-30.657 1.892-10.787-13.553-26.127-9.881-36.187 3.735-10.238 25.482-12.073 30.878-21.382 5.45-9.396-3.786-29.106 3.168-37.37 6.975-8.287 28.036-2.614 36.34-9.574 8.28-6.94 6.318-28.626 15.733-34.063 9.33-5.384 27.169 7.112 37.43 3.383 10.08-3.662 15.684-24.71 26.492-26.597 10.512-1.838 22.962 16.007 33.999 16.007 11.037 0 23.487-17.845 33.998-16.007 10.809 1.888 16.412 22.935 26.494 26.597 10.26 3.729 28.1-8.767 37.429-3.38 9.415 5.434 7.452 27.12 15.732 34.062 8.305 6.96 29.366 1.286 36.342 9.572 6.954 8.264-2.28 27.974 3.167 37.37 5.396 9.31 27.143 11.144 30.878 21.383 3.67 10.06-11.773 25.4-9.88 36.184 1.84 10.49 21.64 19.644 21.64 30.66"/>
        <path fill="#4A4A4A" d="M194.969 423h-.01a2.522 2.522 0 0 1-2.517-2.526l.077-20.3a2.51 2.51 0 0 1 1.707-2.369l15.406-5.26-38.913-13.103A2.522 2.522 0 0 1 169 377.11a2.52 2.52 0 0 1 1.625-2.401l41.09-15.626-15.335-9.16a2.512 2.512 0 0 1-1.227-2.156v-502.25a2.52 2.52 0 0 1 2.528-2.516 2.522 2.522 0 0 1 2.527 2.516v500.826l18.565 11.087a2.51 2.51 0 0 1-.4 4.506l-39.385 14.979 39.293 13.233a2.513 2.513 0 0 1 1.719 2.378 2.514 2.514 0 0 1-1.708 2.383l-20.725 7.076-.07 18.51a2.521 2.521 0 0 1-2.528 2.506M194.5 548c-1.38 0-2.5-1.14-2.5-2.55v-34.9c0-1.407 1.12-2.55 2.5-2.55s2.5 1.143 2.5 2.55v34.9c0 1.41-1.12 2.55-2.5 2.55"/>
        <path fill="#4A4A4A" d="M175.031 575.002h38.938v-7.665c0-10.664-8.733-19.34-19.468-19.34-10.737 0-19.47 8.676-19.47 19.34v7.665zM216.484 580h-43.968a2.507 2.507 0 0 1-2.516-2.499v-10.164c0-13.42 10.99-24.337 24.5-24.337s24.5 10.918 24.5 24.337V577.5a2.507 2.507 0 0 1-2.516 2.499z"/>
        <path fill="#4A4A4A" d="M201.5 593c-1.38 0-2.5-1.098-2.5-2.453v-13.094c0-1.353 1.12-2.453 2.5-2.453s2.5 1.1 2.5 2.453v13.094c0 1.355-1.12 2.453-2.5 2.453M187.5 593c-1.38 0-2.5-1.098-2.5-2.453v-13.094c0-1.353 1.12-2.453 2.5-2.453s2.5 1.1 2.5 2.453v13.094c0 1.355-1.12 2.453-2.5 2.453M164.846 491L249 439.173s-5.312-10.367-18.91-1.75c-13.6 8.62-40.919 26.765-40.919 26.765s1.404 6.213-3.307 8.993C181.15 475.96 163 487.54 163 487.54"/>
        <path fill="#4A4A4A" d="M165.753 494a1.901 1.901 0 0 1-1.616-.89 1.88 1.88 0 0 1 .611-2.598l82.626-50.97c-.817-.895-2.144-1.98-4.054-2.482-3.118-.82-6.868.14-11.153 2.858-12 7.616-34.961 22.848-39.989 26.19.204 2.327.022 7.132-4.388 9.736-4.64 2.743-22.678 14.266-22.86 14.384a1.912 1.912 0 0 1-2.628-.567 1.877 1.877 0 0 1 .572-2.606c.743-.477 18.274-11.677 22.97-14.454 3.459-2.042 2.475-6.8 2.431-7.002a1.894 1.894 0 0 1 .799-1.971c.273-.181 27.555-18.327 41.046-26.89 5.25-3.331 10.049-4.445 14.254-3.305 5.11 1.381 7.327 5.617 7.42 5.797a1.881 1.881 0 0 1-.691 2.457l-84.347 52.03a1.905 1.905 0 0 1-1.003.283"/>
        <path fill="#4A4A4A" d="M158.722 497.979a7.37 7.37 0 0 1-8.7 5.742 7.372 7.372 0 1 1 8.7-5.742m-4.513-14.702c-7.303-1.496-14.436 3.211-15.932 10.514-1.496 7.303 3.21 14.436 10.514 15.932 7.303 1.495 14.435-3.211 15.931-10.515 1.498-7.301-3.21-14.435-10.513-15.93"/>
        <path fill="#4A4A4A" d="M151.5 491.946a5.557 5.557 0 0 0-5.435 4.439 5.556 5.556 0 0 0 4.322 6.552c3.002.62 5.939-1.326 6.552-4.324a5.51 5.51 0 0 0-.805-4.172 5.511 5.511 0 0 0-3.518-2.38 5.383 5.383 0 0 0-1.115-.115m.004 14.875a9.274 9.274 0 0 1-1.873-.19 9.261 9.261 0 0 1-5.908-3.998 9.266 9.266 0 0 1-1.352-7.003c1.031-5.036 5.97-8.297 11-7.262a9.261 9.261 0 0 1 5.907 3.998 9.261 9.261 0 0 1 1.353 7.003c-.903 4.407-4.796 7.452-9.127 7.452m-.028-21.056c-2.271 0-4.496.664-6.435 1.943a11.656 11.656 0 0 0-5.03 7.438 11.661 11.661 0 0 0 1.7 8.815 11.647 11.647 0 0 0 7.436 5.029c6.336 1.294 12.544-2.8 13.842-9.135 1.299-6.339-2.799-12.549-9.134-13.848-.792-.16-1.589-.242-2.379-.242m.03 27.235a15.55 15.55 0 0 1-3.115-.317 15.405 15.405 0 0 1-9.825-6.647 15.405 15.405 0 0 1-2.247-11.646c1.715-8.373 9.924-13.783 18.292-12.075 8.372 1.715 13.786 9.922 12.071 18.295-1.501 7.328-7.974 12.39-15.176 12.39M160.41 458L257 475.62s-1.026 11.952-16.726 8.873c-15.7-3.08-47.547-10.065-47.547-10.065s-1.02-6.486-6.381-7.356c-5.363-.87-26.346-5.056-26.346-5.056"/>
        <path fill="#4A4A4A" d="M245.2 487c-1.614 0-3.35-.177-5.2-.528-15.58-2.961-47.381-9.717-47.701-9.786a1.882 1.882 0 0 1-1.467-1.541c-.033-.196-.895-4.97-4.832-5.588-5.347-.839-25.614-4.755-26.474-4.922a1.883 1.883 0 0 1-1.492-2.206 1.887 1.887 0 0 1 2.205-1.494c.21.041 21.063 4.07 26.344 4.9 5.02.788 6.972 5.175 7.648 7.409 5.86 1.241 32.617 6.892 46.47 9.526 4.979.945 8.794.44 11.354-1.498 1.526-1.156 2.331-2.64 2.752-3.767l-94.842-16.764a1.887 1.887 0 0 1-1.525-2.185 1.89 1.89 0 0 1 2.18-1.527l96.825 17.116a1.887 1.887 0 0 1 1.548 2.024c-.018.198-.484 4.942-4.668 8.11-2.393 1.81-5.448 2.721-9.124 2.721"/>
        <path fill="#4A4A4A" d="M149.562 464.653a7.373 7.373 0 1 1-8.122-12.307 7.373 7.373 0 0 1 8.122 12.307m7.205-13.588c-4.107-6.222-12.478-7.938-18.702-3.83-6.222 4.104-7.937 12.478-3.832 18.7 4.107 6.222 12.48 7.938 18.702 3.831 6.222-4.105 7.937-12.479 3.832-18.701"/>
        <path fill="#4A4A4A" d="M145.49 452.947c-1.049 0-2.11.297-3.05.918a5.52 5.52 0 0 0-2.38 3.52 5.513 5.513 0 0 0 .804 4.174 5.56 5.56 0 0 0 7.693 1.575 5.558 5.558 0 0 0 1.578-7.693 5.555 5.555 0 0 0-4.644-2.494zm4.107 11.76h.011-.011zm-4.081 3.114a9.327 9.327 0 0 1-7.8-4.185 9.267 9.267 0 0 1-1.352-7.006 9.27 9.27 0 0 1 4-5.911c4.292-2.833 10.085-1.646 12.918 2.645 2.83 4.291 1.644 10.087-2.647 12.917a9.26 9.26 0 0 1-5.12 1.54zm-.035-21.053a11.68 11.68 0 0 0-6.444 1.937c-5.4 3.565-6.894 10.858-3.331 16.26 3.563 5.396 10.855 6.89 16.256 3.33 5.4-3.565 6.895-10.858 3.332-16.26-2.253-3.413-5.999-5.267-9.813-5.267zm.042 27.232c-5.039 0-9.987-2.447-12.964-6.96-4.709-7.136-2.734-16.771 4.401-21.482 7.133-4.706 16.772-2.735 21.481 4.402 4.709 7.136 2.734 16.771-4.401 21.482a15.418 15.418 0 0 1-8.517 2.558z"/>
        <path fill="#387ED1" d="M175.337 422c-1.017 0-1.988-.553-2.43-1.481l-6.672-13.986c-.604-1.263-.003-2.745 1.338-3.31 1.346-.573 2.92-.003 3.52 1.258l6.672 13.986c.604 1.263.003 2.745-1.338 3.31a2.769 2.769 0 0 1-1.09.223M168.506 430c-.154 0-.309-.013-.466-.04l-15.008-2.533c-1.353-.227-2.244-1.396-1.988-2.608.254-1.213 1.554-2.012 2.916-1.779l15.006 2.534c1.355.226 2.246 1.395 1.99 2.607-.226 1.071-1.274 1.819-2.45 1.819M218.337 524c-1.017 0-1.988-.553-2.43-1.481l-6.672-13.985c-.604-1.263-.003-2.746 1.338-3.31 1.347-.573 2.92-.006 3.52 1.257l6.672 13.986c.604 1.263.003 2.745-1.338 3.31a2.769 2.769 0 0 1-1.09.223M233.506 503c-.154 0-.31-.011-.466-.04l-15.008-2.533c-1.353-.227-2.244-1.395-1.988-2.608.254-1.21 1.561-2.014 2.916-1.778l15.006 2.533c1.355.229 2.246 1.395 1.99 2.608-.226 1.072-1.274 1.818-2.45 1.818"/>
    </g>
</svg>
